<?xml version="1.0" standalone="no"?>
<!DOCTYPE svg PUBLIC "-//W3C//DTD SVG 20010904//EN"
 "http://www.w3.org/TR/2001/REC-SVG-20010904/DTD/svg10.dtd">
<svg version="1.0" xmlns="http://www.w3.org/2000/svg"
 width="860.000000pt" height="175.000000pt" viewBox="0 0 860.000000 175.000000"
 preserveAspectRatio="xMidYMid meet">

<g transform="translate(0.000000,175.000000) scale(0.100000,-0.100000)"
fill="#000000" stroke="none">
<path d="M0 875 l0 -875 4300 0 4300 0 0 875 0 875 -4300 0 -4300 0 0 -875z
m4943 768 c2 -5 -20 -141 -49 -303 -29 -162 -53 -303 -54 -313 0 -16 14 -17
202 -15 l202 3 56 315 56 315 187 3 c146 2 187 0 187 -10 0 -27 -259 -1488
-265 -1498 -7 -12 -361 -14 -369 -2 -2 4 17 126 43 272 l47 265 -200 3 c-109
1 -201 0 -204 -3 -3 -3 -26 -125 -52 -273 l-46 -267 -187 -3 c-173 -2 -187 -1
-187 15 0 29 258 1481 265 1493 7 12 361 14 368 3z m-4149 -115 c19 -62 69
-223 110 -357 42 -134 77 -246 80 -248 2 -2 110 158 241 357 l238 360 200 0
c185 0 199 -1 195 -17 -3 -10 -63 -350 -134 -755 l-129 -738 -187 0 c-144 0
-188 3 -188 13 0 6 32 191 71 411 38 219 68 400 66 402 -2 2 -73 -105 -158
-238 l-154 -243 -137 -3 -136 -3 -16 53 c-8 29 -38 136 -67 238 -28 102 -54
190 -58 197 -3 7 -26 -99 -50 -235 -24 -136 -57 -325 -74 -419 l-30 -173 -190
0 c-175 0 -189 1 -185 18 3 9 63 349 134 754 l129 738 197 0 197 0 35 -112z
m2412 95 c-3 -10 -14 -72 -26 -138 -11 -66 -23 -132 -26 -147 l-6 -28 -337 0
-337 0 -18 -112 c-10 -62 -20 -125 -23 -140 l-5 -28 276 0 c203 0 276 -3 276
-12 0 -19 -51 -302 -56 -310 -3 -5 -129 -8 -279 -8 l-275 0 -5 -22 c-6 -30
-35 -201 -35 -210 0 -5 151 -8 335 -8 184 0 335 -3 335 -7 0 -5 -13 -78 -28
-163 l-28 -155 -528 -3 c-499 -2 -527 -1 -522 15 2 10 62 344 131 743 70 399
128 731 130 738 4 9 118 12 530 12 497 0 526 -1 521 -17z m614 0 c0 -14 -180
-1056 -196 -1136 l-6 -27 286 0 c284 0 286 0 286 -21 0 -21 -50 -302 -54 -307
-2 -1 -216 -1 -477 0 l-475 3 133 750 c72 413 132 751 133 753 0 1 83 2 185 2
167 0 185 -2 185 -17z m2570 11 c0 -3 -38 -224 -86 -490 -47 -267 -86 -515
-86 -552 -3 -120 43 -162 174 -162 123 1 192 48 229 159 10 27 57 275 106 550
l88 501 187 0 c104 0 188 -3 188 -6 0 -37 -186 -1050 -201 -1096 -93 -284
-282 -419 -609 -435 -270 -13 -443 61 -517 221 -25 55 -28 71 -28 176 0 101
11 179 90 627 l90 513 188 0 c103 0 187 -3 187 -6z m1901 -22 c118 -39 191
-127 205 -245 7 -63 -27 -258 -57 -321 -30 -65 -74 -112 -130 -140 -41 -20
-48 -27 -33 -31 69 -22 130 -77 154 -139 13 -35 13 -121 -1 -188 -43 -212
-135 -328 -309 -390 -63 -22 -77 -23 -488 -26 l-423 -3 6 23 c2 13 61 347 130
743 70 396 128 726 130 733 4 11 76 13 377 10 353 -4 377 -5 439 -26z"/>
<path d="M7771 1177 c-12 -74 -25 -144 -28 -156 l-6 -23 119 4 c137 4 180 19
216 75 28 46 30 136 3 176 -30 46 -63 57 -178 57 l-104 0 -22 -133z"/>
<path d="M7696 739 c-6 -18 -46 -252 -46 -267 0 -9 37 -12 138 -12 123 0 143
2 182 23 80 40 112 125 75 197 -26 50 -65 63 -212 68 -107 4 -133 2 -137 -9z"/>
</g>
</svg>
