<?xml version="1.0" standalone="no"?>
<!DOCTYPE svg PUBLIC "-//W3C//DTD SVG 20010904//EN"
 "http://www.w3.org/TR/2001/REC-SVG-20010904/DTD/svg10.dtd">
<svg version="1.0" xmlns="http://www.w3.org/2000/svg"
 width="297.000000pt" height="265.000000pt" viewBox="0 0 297.000000 265.000000"
 preserveAspectRatio="xMidYMid meet">

<g transform="translate(0.000000,265.000000) scale(0.100000,-0.100000)"
fill="#000000" stroke="none">
<path d="M767 2330 c-86 -22 -156 -81 -199 -168 l-33 -67 0 -805 0 -805 35
-64 c53 -98 162 -171 257 -171 l23 0 0 880 c0 484 3 880 6 880 8 0 90 -65 234
-187 115 -98 134 -111 149 -100 10 6 91 73 180 147 89 74 167 137 172 138 5 2
9 -140 9 -357 l0 -361 161 0 160 0 -3 408 c-3 391 -4 409 -24 453 -31 67 -87
124 -152 156 -50 24 -69 28 -147 28 -110 0 -129 -9 -268 -124 -78 -64 -102
-79 -115 -72 -9 6 -55 42 -102 82 -47 39 -105 81 -130 92 -51 23 -155 31 -213
17z"/>
<path d="M2150 1725 l0 -615 -380 0 -380 0 0 205 0 205 -155 0 -155 0 0 -635
0 -635 155 0 155 0 2 268 3 267 280 0 c154 0 324 -1 378 -3 l97 -3 0 -265 0
-264 30 0 c45 0 126 34 175 75 29 23 56 59 77 103 l33 67 3 768 c3 843 3 844
-56 933 -53 81 -157 144 -239 144 l-23 0 0 -615z"/>
</g>
</svg>
