<svg id="svg" version="1.1" xmlns="http://www.w3.org/2000/svg" xmlns:xlink="http://www.w3.org/1999/xlink" width="400" height="356.9023569023569" viewBox="0, 0, 400,356.9023569023569"><g id="svgg"><path id="path0" d="M210.000 42.139 C 204.085 43.294,199.135 44.757,198.278 45.605 C 198.018 45.861,197.498 46.071,197.121 46.071 C 196.744 46.071,195.510 46.714,194.379 47.500 C 193.247 48.285,192.185 48.928,192.018 48.928 C 191.742 48.929,183.686 55.468,180.159 58.554 C 179.362 59.251,177.760 60.625,176.598 61.607 C 175.436 62.589,173.838 63.967,173.046 64.669 C 170.836 66.628,166.701 69.856,165.805 70.321 C 164.890 70.797,164.077 70.477,162.082 68.856 C 161.428 68.325,159.929 67.127,158.750 66.194 C 157.571 65.260,155.241 63.289,153.571 61.813 C 151.902 60.338,150.229 58.884,149.855 58.583 C 149.480 58.282,148.596 57.542,147.890 56.939 C 145.907 55.244,139.536 50.221,138.863 49.821 C 137.955 49.282,134.874 47.206,134.437 46.839 C 134.225 46.661,133.663 46.398,133.187 46.253 C 132.711 46.108,131.820 45.687,131.208 45.316 C 130.595 44.946,129.707 44.643,129.234 44.643 C 128.760 44.643,128.056 44.423,127.669 44.155 C 127.281 43.887,126.000 43.554,124.821 43.416 C 123.643 43.277,121.771 42.934,120.663 42.653 C 118.036 41.988,110.580 41.972,108.706 42.627 C 107.944 42.893,106.277 43.225,105.000 43.364 C 103.723 43.504,102.357 43.824,101.964 44.074 C 101.571 44.325,100.768 44.646,100.179 44.788 C 95.434 45.932,85.758 52.788,81.786 57.820 C 81.295 58.442,80.708 59.159,80.483 59.414 C 80.257 59.668,79.557 60.898,78.927 62.146 C 78.297 63.394,77.392 65.005,76.915 65.724 C 76.156 66.871,74.540 70.891,73.545 74.105 C 73.363 74.693,73.213 75.898,73.212 76.783 C 73.211 77.669,72.930 78.875,72.587 79.464 C 71.760 80.888,71.602 283.830,72.427 285.275 C 72.682 285.721,73.036 287.362,73.214 288.922 C 73.391 290.482,73.770 292.126,74.055 292.576 C 74.340 293.025,74.684 293.926,74.820 294.578 C 74.956 295.229,75.292 296.194,75.567 296.720 C 75.842 297.247,76.068 297.794,76.069 297.936 C 76.070 298.078,76.780 299.393,77.647 300.858 C 78.513 302.324,79.327 303.854,79.456 304.259 C 80.266 306.812,90.274 316.405,93.644 317.859 C 94.095 318.053,94.705 318.348,95.000 318.514 C 96.150 319.163,98.794 320.314,99.643 320.537 C 100.134 320.666,101.054 321.005,101.688 321.291 C 102.322 321.577,103.849 321.953,105.081 322.126 C 106.313 322.300,107.964 322.611,108.750 322.819 C 110.739 323.346,112.694 323.305,113.174 322.727 C 113.473 322.367,113.567 292.265,113.536 206.924 C 113.512 143.500,113.515 91.286,113.541 90.893 C 113.568 90.500,113.626 89.339,113.670 88.314 C 113.812 85.021,115.354 84.308,117.679 86.461 C 118.071 86.825,119.209 87.811,120.207 88.651 C 121.205 89.491,122.951 90.982,124.088 91.964 C 125.224 92.946,126.427 93.911,126.760 94.107 C 127.093 94.304,127.918 94.974,128.594 95.598 C 129.269 96.222,130.223 97.061,130.714 97.463 C 132.733 99.117,140.148 105.438,140.357 105.683 C 140.455 105.799,142.192 107.233,144.215 108.870 C 146.239 110.508,148.411 112.356,149.042 112.977 C 149.672 113.599,152.114 115.652,154.469 117.540 C 156.824 119.428,159.313 121.517,160.000 122.183 C 160.688 122.848,162.101 124.097,163.141 124.958 L 165.033 126.522 165.969 125.672 C 166.484 125.204,167.160 124.618,167.471 124.369 C 167.781 124.120,168.528 123.477,169.129 122.940 C 170.951 121.314,173.589 119.122,176.786 116.578 C 178.455 115.249,180.063 113.955,180.357 113.702 C 180.652 113.449,181.786 112.472,182.877 111.532 C 186.954 108.017,189.079 106.225,190.197 105.357 C 191.295 104.505,194.359 102.007,195.233 101.250 C 195.460 101.054,196.505 100.144,197.555 99.229 C 199.686 97.372,205.483 92.567,207.679 90.838 C 208.464 90.220,210.071 88.816,211.250 87.719 C 213.422 85.698,214.729 85.229,215.643 86.143 C 215.972 86.472,216.071 97.736,216.071 134.670 L 216.071 182.768 217.188 182.991 C 219.029 183.359,256.906 183.240,257.500 182.865 C 259.221 181.776,258.049 75.352,256.279 71.964 C 255.971 71.375,255.716 70.571,255.713 70.179 C 255.695 68.077,250.563 59.681,246.835 55.654 C 243.804 52.381,237.802 47.832,234.643 46.413 C 234.152 46.193,233.156 45.704,232.429 45.328 C 231.703 44.951,230.819 44.637,230.465 44.631 C 230.111 44.624,229.179 44.308,228.393 43.929 C 227.607 43.549,226.477 43.233,225.881 43.226 C 225.286 43.220,223.920 42.965,222.846 42.659 C 220.558 42.009,212.367 41.678,210.000 42.139 M289.911 41.986 C 289.763 42.138,289.643 79.349,289.643 124.677 C 289.643 195.090,289.570 207.165,289.140 207.595 C 288.005 208.729,189.540 209.138,187.937 208.015 L 187.143 207.459 187.137 180.426 C 187.134 165.558,187.004 153.191,186.848 152.945 C 186.386 152.218,147.724 152.479,146.990 153.214 C 146.229 153.977,146.085 322.419,146.846 322.903 C 147.107 323.070,156.241 323.168,167.143 323.121 L 186.964 323.036 187.143 287.857 C 187.335 250.062,187.266 251.323,189.171 250.845 C 190.586 250.490,287.472 251.078,288.444 251.448 C 288.907 251.624,289.323 251.812,289.369 251.866 C 289.415 251.920,289.535 268.036,289.637 287.679 L 289.821 323.393 291.104 323.500 C 295.449 323.864,308.559 319.866,311.874 317.165 C 312.120 316.965,313.553 315.832,315.058 314.647 C 323.757 307.798,328.695 299.690,330.894 288.643 L 331.786 284.159 331.786 183.019 C 331.786 83.804,331.772 81.801,331.078 77.814 C 329.085 66.367,323.681 57.418,314.464 50.304 C 313.875 49.849,313.339 49.354,313.274 49.203 C 313.208 49.052,313.015 48.929,312.843 48.929 C 312.542 48.929,310.256 47.517,309.406 46.805 C 309.177 46.614,308.534 46.347,307.977 46.212 C 307.420 46.078,306.538 45.669,306.016 45.305 C 305.495 44.941,304.805 44.643,304.484 44.643 C 304.163 44.643,303.270 44.321,302.500 43.929 C 301.730 43.536,300.471 43.214,299.702 43.214 C 298.933 43.214,297.639 42.980,296.827 42.693 C 295.087 42.079,290.296 41.590,289.911 41.986 " stroke="none" fill="#142fce" fill-rule="evenodd"></path><path id="path1" d="M0.000 178.571 L 0.000 357.143 200.000 357.143 L 400.000 357.143 400.000 178.571 L 400.000 0.000 200.000 0.000 L 0.000 0.000 0.000 178.571 M124.322 41.083 C 125.532 41.469,126.813 41.786,127.168 41.786 C 127.727 41.786,132.732 44.034,134.286 44.983 C 134.580 45.163,135.746 45.756,136.875 46.301 C 138.004 46.846,138.929 47.412,138.929 47.558 C 138.929 47.704,139.461 48.076,140.112 48.385 C 141.217 48.910,142.744 50.044,144.328 51.518 C 144.698 51.862,145.161 52.143,145.357 52.143 C 145.554 52.143,145.714 52.296,145.714 52.483 C 145.714 52.670,146.397 53.298,147.232 53.878 C 148.067 54.459,149.734 55.873,150.936 57.020 C 153.140 59.125,153.683 59.574,157.003 62.038 C 159.678 64.024,163.210 67.260,163.212 67.726 C 163.214 68.100,164.295 68.555,165.211 68.567 C 165.425 68.569,166.334 67.888,167.230 67.054 C 170.643 63.875,171.324 63.297,173.929 61.369 C 175.402 60.279,177.089 58.954,177.679 58.425 C 180.038 56.307,181.788 54.765,183.093 53.654 C 183.847 53.011,185.107 51.920,185.893 51.229 C 186.679 50.538,188.045 49.501,188.929 48.924 C 189.813 48.348,190.732 47.709,190.973 47.504 C 191.213 47.300,191.776 46.967,192.223 46.765 C 192.670 46.563,193.839 45.928,194.821 45.355 C 195.804 44.781,197.330 43.965,198.214 43.540 C 199.098 43.116,200.223 42.562,200.714 42.310 C 201.205 42.058,202.250 41.743,203.036 41.610 C 203.821 41.478,205.268 41.101,206.250 40.774 C 208.788 39.928,223.386 39.921,224.683 40.766 C 225.152 41.071,226.179 41.436,226.964 41.576 C 229.069 41.953,233.790 43.897,234.497 44.679 C 234.835 45.052,235.332 45.357,235.602 45.357 C 238.565 45.357,248.941 54.201,252.321 59.607 C 252.518 59.922,252.766 60.259,252.872 60.357 C 252.979 60.455,253.522 61.500,254.079 62.679 C 254.635 63.857,255.392 65.406,255.760 66.120 C 256.128 66.834,256.429 67.853,256.429 68.384 C 256.429 68.915,256.726 69.617,257.090 69.943 C 257.822 70.599,258.270 71.998,259.180 76.467 C 259.735 79.195,259.800 84.111,259.905 131.220 L 260.021 182.975 259.038 184.000 L 258.056 185.026 236.914 184.924 L 215.771 184.821 214.850 183.956 L 213.929 183.090 213.929 135.852 C 213.929 104.745,213.807 88.538,213.571 88.393 C 213.375 88.271,213.214 88.351,213.214 88.569 C 213.214 88.787,212.732 89.134,212.143 89.339 C 211.554 89.545,211.071 89.938,211.071 90.214 C 211.071 90.510,210.706 90.714,210.179 90.714 C 209.600 90.714,209.286 90.914,209.286 91.283 C 209.286 91.596,208.964 91.937,208.571 92.039 C 208.179 92.142,207.857 92.345,207.857 92.490 C 207.857 92.887,206.467 94.280,204.282 96.071 C 203.204 96.955,202.010 97.960,201.629 98.304 C 201.248 98.647,200.726 98.929,200.468 98.929 C 200.211 98.929,200.000 99.058,200.000 99.217 C 200.000 99.376,199.360 99.979,198.577 100.556 C 197.795 101.134,197.061 101.888,196.946 102.232 C 196.831 102.576,196.565 102.857,196.355 102.857 C 196.144 102.857,195.793 103.079,195.575 103.351 C 195.161 103.866,188.626 109.231,186.716 110.622 C 185.236 111.701,181.970 114.517,180.294 116.161 C 179.543 116.897,178.800 117.500,178.644 117.500 C 178.487 117.500,177.732 118.143,176.964 118.929 C 176.197 119.714,175.378 120.357,175.143 120.357 C 174.909 120.357,174.253 120.879,173.687 121.518 C 173.120 122.156,171.938 123.161,171.060 123.750 C 170.182 124.339,169.268 125.083,169.028 125.402 C 166.981 128.132,164.286 128.493,162.057 126.338 C 161.092 125.405,159.196 123.856,156.429 121.743 C 155.348 120.917,153.654 119.505,152.663 118.603 C 150.814 116.920,150.289 116.470,146.607 113.412 C 145.429 112.433,144.285 111.466,144.066 111.263 C 143.846 111.059,142.962 110.295,142.101 109.565 C 141.240 108.835,140.054 107.820,139.464 107.310 C 138.875 106.799,137.717 105.907,136.891 105.328 C 136.065 104.748,135.179 103.973,134.922 103.607 C 134.666 103.241,133.574 102.253,132.496 101.413 C 131.418 100.573,130.268 99.612,129.942 99.277 C 129.615 98.942,128.731 98.289,127.978 97.826 C 126.531 96.938,125.486 96.050,122.123 92.857 C 118.467 89.386,116.619 87.881,116.347 88.153 C 116.201 88.299,116.039 141.402,115.987 206.161 C 115.897 318.970,115.866 323.930,115.250 324.541 C 113.305 326.472,100.990 324.284,95.787 321.082 C 94.819 320.487,93.770 320.000,93.455 320.000 C 93.140 320.000,92.710 319.679,92.500 319.286 C 92.290 318.893,91.802 318.571,91.416 318.571 C 91.030 318.571,90.393 318.250,90.000 317.857 C 89.607 317.464,89.195 317.143,89.083 317.143 C 88.281 317.143,83.241 312.424,80.356 308.971 C 79.473 307.914,78.579 306.870,78.370 306.650 C 77.618 305.857,75.000 301.196,75.000 300.648 C 75.000 300.340,74.776 299.901,74.502 299.674 C 74.228 299.446,73.894 298.680,73.761 297.971 C 73.628 297.262,73.302 296.343,73.036 295.930 C 72.770 295.517,72.446 294.536,72.316 293.750 C 72.186 292.964,71.813 291.759,71.486 291.071 C 70.543 289.084,70.574 75.992,71.518 74.550 C 71.862 74.026,72.143 72.986,72.143 72.239 C 72.143 71.493,72.440 70.322,72.802 69.638 C 73.165 68.953,73.577 67.911,73.718 67.321 C 73.949 66.360,74.880 64.327,76.434 61.393 C 76.732 60.830,77.697 59.544,78.577 58.535 C 79.458 57.525,80.339 56.414,80.536 56.066 C 80.732 55.719,81.672 54.734,82.624 53.878 C 83.576 53.022,85.251 51.397,86.346 50.268 C 87.441 49.138,88.566 48.214,88.845 48.214 C 89.123 48.214,89.760 47.893,90.260 47.500 C 90.759 47.107,91.367 46.786,91.612 46.786 C 91.856 46.786,92.252 46.549,92.492 46.259 C 92.732 45.970,93.475 45.631,94.143 45.505 C 94.811 45.380,95.357 45.143,95.357 44.979 C 95.357 44.622,98.433 43.038,100.080 42.547 C 100.724 42.355,102.455 41.841,103.929 41.404 C 109.171 39.849,119.929 39.680,124.322 41.083 M298.122 40.864 C 298.860 41.141,300.180 41.469,301.054 41.592 C 301.928 41.716,302.812 41.949,303.018 42.111 C 303.224 42.273,304.242 42.682,305.279 43.021 C 306.316 43.359,307.625 44.023,308.188 44.497 C 308.750 44.970,309.468 45.357,309.784 45.357 C 310.099 45.357,310.679 45.679,311.071 46.071 C 311.464 46.464,312.007 46.786,312.278 46.786 C 313.752 46.786,323.571 55.590,323.571 56.912 C 323.571 57.054,324.214 57.839,325.000 58.657 C 325.786 59.475,326.429 60.433,326.429 60.786 C 326.429 61.140,326.590 61.429,326.788 61.429 C 326.986 61.429,327.894 62.996,328.806 64.911 C 331.412 70.384,331.786 71.280,331.786 72.048 C 331.786 72.444,332.067 73.471,332.411 74.330 C 333.001 75.806,333.036 81.828,333.036 183.036 C 333.036 284.403,333.002 290.240,332.411 291.322 C 332.067 291.950,331.786 292.810,331.786 293.232 C 331.786 293.654,331.552 294.506,331.267 295.125 C 330.981 295.744,330.334 297.364,329.829 298.726 C 328.896 301.244,327.183 304.284,326.696 304.285 C 326.549 304.285,326.429 304.487,326.429 304.732 C 326.429 304.978,325.786 305.882,325.000 306.742 C 324.214 307.601,323.571 308.517,323.571 308.776 C 323.571 309.308,317.700 315.357,317.184 315.357 C 317.001 315.357,315.963 316.080,314.878 316.964 C 313.793 317.848,312.742 318.571,312.542 318.571 C 312.342 318.571,312.050 318.794,311.893 319.066 C 311.620 319.538,305.719 322.500,305.051 322.500 C 304.875 322.500,304.542 322.727,304.311 323.005 C 304.081 323.282,303.057 323.623,302.036 323.761 C 301.014 323.900,299.545 324.265,298.771 324.573 C 296.703 325.395,289.190 325.408,288.369 324.591 C 287.827 324.051,287.783 321.140,287.835 289.018 L 287.891 254.033 286.994 253.445 C 285.827 252.680,190.476 252.524,189.714 253.286 C 189.387 253.613,189.286 261.944,189.286 288.603 C 189.286 322.429,189.265 323.518,188.603 324.335 L 187.920 325.179 167.085 325.179 C 146.928 325.179,144.788 325.085,144.209 324.174 C 143.694 323.364,143.872 152.000,144.388 151.294 C 144.777 150.763,179.693 150.279,187.500 150.697 C 189.169 150.786,189.096 149.607,189.286 179.183 L 189.464 206.964 238.036 207.049 C 268.264 207.101,286.809 207.005,287.143 206.794 C 287.616 206.494,287.687 196.852,287.754 124.031 L 287.830 41.607 288.813 40.755 C 289.939 39.779,295.400 39.843,298.122 40.864 " stroke="none" fill="#fbfbfb" fill-rule="evenodd"></path><path id="path2" d="M208.426 41.288 C 205.314 41.850,202.185 42.686,200.536 43.397 C 193.425 46.461,189.894 48.686,184.644 53.412 C 183.759 54.208,181.268 56.293,179.107 58.044 C 176.946 59.796,175.018 61.407,174.821 61.624 C 174.625 61.841,173.741 62.560,172.857 63.222 C 171.973 63.884,170.970 64.708,170.627 65.053 C 170.284 65.398,168.882 66.587,167.511 67.695 L 165.018 69.709 164.027 68.947 C 162.677 67.909,160.593 66.184,158.582 64.439 C 157.660 63.639,155.722 62.032,154.276 60.867 C 152.829 59.703,151.293 58.429,150.863 58.036 C 136.536 44.968,127.512 40.864,113.750 41.160 C 107.926 41.286,102.118 42.338,99.386 43.763 C 98.840 44.048,98.244 44.282,98.062 44.284 C 97.528 44.287,91.400 47.477,90.828 48.049 C 90.541 48.337,90.161 48.571,89.984 48.571 C 89.654 48.571,85.823 51.793,83.566 53.969 C 80.876 56.562,75.405 64.099,75.345 65.293 C 75.338 65.427,75.022 66.179,74.643 66.964 C 74.263 67.750,73.947 68.609,73.941 68.873 C 73.934 69.138,73.696 69.781,73.411 70.302 C 72.887 71.263,71.985 75.196,71.390 79.117 C 71.196 80.392,71.101 123.263,71.156 184.295 L 71.250 287.321 72.075 290.536 C 74.268 299.075,76.669 303.559,82.850 310.656 C 85.801 314.043,90.703 317.830,94.286 319.488 C 94.973 319.806,96.500 320.520,97.679 321.073 C 103.782 323.940,112.652 325.432,114.496 323.902 C 114.928 323.544,115.000 306.596,115.000 205.313 L 115.000 87.143 115.837 87.143 C 116.637 87.143,117.300 87.654,123.139 92.772 C 124.375 93.855,125.822 95.079,126.354 95.493 C 128.256 96.970,135.636 103.133,140.517 107.321 C 142.120 108.696,145.104 111.188,147.149 112.857 C 149.194 114.527,151.204 116.214,151.615 116.607 C 155.121 119.953,164.207 127.143,164.930 127.143 C 165.554 127.143,170.005 123.922,172.500 121.666 C 173.188 121.044,174.634 119.819,175.714 118.945 C 176.795 118.070,177.952 117.106,178.286 116.802 C 178.621 116.498,179.103 116.080,179.358 115.873 C 180.984 114.552,188.782 108.022,188.929 107.859 C 189.027 107.750,189.830 107.106,190.714 106.429 C 191.598 105.752,192.804 104.769,193.393 104.245 C 194.686 103.096,199.027 99.422,203.686 95.536 C 205.570 93.964,207.119 92.544,207.127 92.379 C 207.136 92.214,206.697 92.455,206.151 92.915 C 205.606 93.374,203.074 95.517,200.526 97.676 C 197.978 99.836,195.684 101.765,195.430 101.962 C 195.175 102.160,194.612 102.656,194.180 103.066 C 193.747 103.475,192.589 104.438,191.607 105.207 C 190.625 105.975,188.240 107.970,186.306 109.641 C 184.373 111.312,182.381 112.947,181.880 113.276 C 181.379 113.605,180.871 114.012,180.752 114.181 C 180.633 114.350,179.732 115.123,178.750 115.899 C 177.092 117.208,173.809 119.967,171.259 122.193 C 165.379 127.326,164.896 127.433,161.389 124.378 C 160.090 123.247,157.295 120.880,155.176 119.119 C 153.058 117.358,151.118 115.710,150.864 115.456 C 150.611 115.203,148.424 113.369,146.005 111.381 C 143.586 109.393,140.680 106.943,139.546 105.937 C 138.412 104.930,136.591 103.384,135.499 102.500 C 134.407 101.616,132.755 100.250,131.828 99.464 C 130.901 98.679,129.347 97.361,128.375 96.537 C 124.227 93.022,118.724 88.321,117.706 87.425 C 117.099 86.890,116.168 86.451,115.625 86.443 L 114.643 86.429 114.637 204.554 C 114.634 269.522,114.511 322.869,114.362 323.103 C 113.547 324.385,111.628 324.382,105.357 323.092 C 88.811 319.688,75.679 306.079,72.321 288.857 L 71.429 284.281 71.429 182.575 L 71.429 80.869 72.462 76.059 C 73.536 71.058,74.772 67.346,76.193 64.852 C 76.650 64.049,77.391 62.750,77.840 61.964 C 79.210 59.565,83.020 54.915,85.046 53.168 C 90.102 48.808,90.765 48.344,94.821 46.333 C 99.072 44.226,101.605 43.267,103.957 42.872 C 105.022 42.693,106.455 42.335,107.143 42.077 C 109.594 41.156,120.643 41.478,124.643 42.587 C 134.014 45.185,136.978 46.843,146.063 54.570 C 158.308 64.985,164.464 69.988,165.046 69.997 C 165.355 70.001,169.081 67.088,170.864 65.448 C 171.666 64.711,173.102 63.481,174.054 62.715 C 175.006 61.949,176.050 61.057,176.375 60.731 C 176.699 60.406,177.688 59.594,178.571 58.929 C 179.455 58.263,180.432 57.468,180.741 57.163 C 181.051 56.857,181.758 56.286,182.313 55.893 C 182.869 55.500,183.654 54.863,184.059 54.478 C 186.865 51.804,190.724 48.855,193.750 47.070 C 195.134 46.254,199.188 44.286,199.485 44.286 C 199.611 44.286,200.220 44.052,200.839 43.767 C 207.738 40.587,222.839 40.592,229.875 43.776 C 230.494 44.057,231.199 44.286,231.440 44.286 C 231.682 44.286,232.430 44.625,233.102 45.041 C 233.774 45.456,234.398 45.721,234.490 45.630 C 234.630 45.489,233.526 44.885,230.691 43.553 C 225.766 41.240,214.847 40.129,208.426 41.288 M289.375 41.322 L 288.571 41.968 288.482 124.390 C 288.403 197.180,288.330 206.856,287.857 207.190 C 287.414 207.502,287.435 207.531,287.976 207.355 C 288.335 207.238,288.697 207.143,288.779 207.143 C 288.861 207.143,288.929 170.038,288.929 124.687 C 288.929 51.517,288.989 42.180,289.469 41.782 C 290.219 41.159,296.529 41.516,298.292 42.281 C 299.022 42.598,300.114 42.857,300.717 42.857 C 301.320 42.857,302.410 43.156,303.139 43.521 C 303.868 43.886,304.946 44.300,305.536 44.441 C 306.125 44.583,306.879 44.944,307.211 45.243 C 307.544 45.543,308.026 45.703,308.283 45.601 C 308.587 45.479,308.531 45.404,308.125 45.385 C 307.781 45.370,307.500 45.226,307.500 45.065 C 307.500 43.314,291.108 39.929,289.375 41.322 M237.679 47.380 C 243.942 51.003,250.081 57.293,253.396 63.484 C 253.949 64.516,254.464 65.298,254.540 65.222 C 255.141 64.620,249.396 56.454,246.519 53.820 C 245.619 52.996,244.547 51.982,244.138 51.568 C 242.925 50.341,239.615 48.008,237.403 46.821 C 234.266 45.137,234.451 45.513,237.679 47.380 M309.684 46.339 C 310.152 46.683,311.160 47.283,311.924 47.672 C 314.294 48.880,320.068 54.002,322.493 57.048 C 323.766 58.647,324.867 59.895,324.939 59.823 C 325.831 58.931,315.728 49.399,311.008 46.678 C 309.112 45.585,308.412 45.406,309.684 46.339 M325.648 61.518 C 326.036 62.156,326.691 63.241,327.104 63.929 C 327.517 64.616,327.855 64.954,327.856 64.680 C 327.857 64.406,327.286 63.321,326.588 62.269 C 325.213 60.197,324.497 59.625,325.648 61.518 M327.857 65.617 C 327.857 65.844,328.004 66.120,328.184 66.231 C 328.976 66.721,331.621 75.186,332.263 79.286 C 332.373 79.987,332.413 79.925,332.451 78.993 C 332.514 77.473,331.016 71.571,329.806 68.571 C 328.900 66.324,327.857 64.744,327.857 65.617 M256.074 69.693 C 256.072 69.819,256.389 70.623,256.778 71.479 C 257.210 72.432,257.486 72.759,257.490 72.321 C 257.493 71.929,257.176 71.125,256.786 70.536 C 256.395 69.946,256.075 69.567,256.074 69.693 M257.564 74.107 C 257.546 74.696,257.701 75.902,257.908 76.786 C 258.115 77.670,258.402 80.161,258.545 82.321 L 258.805 86.250 258.867 82.701 C 258.903 80.602,258.716 78.268,258.408 76.987 C 258.122 75.796,257.822 74.420,257.742 73.929 C 257.616 73.148,257.593 73.171,257.564 74.107 M332.676 183.036 C 332.676 239.214,332.717 262.143,332.768 233.989 C 332.818 205.835,332.818 159.870,332.768 131.846 C 332.717 103.822,332.676 126.857,332.676 183.036 M211.443 88.487 C 207.757 91.685,207.327 92.201,210.304 89.852 C 213.220 87.552,214.032 87.157,214.451 87.835 C 214.565 88.019,214.653 109.470,214.647 135.503 L 214.636 182.836 215.475 183.386 C 216.206 183.865,218.458 183.923,232.889 183.839 L 249.464 183.743 232.812 183.657 C 219.170 183.587,216.085 183.482,215.750 183.079 C 215.448 182.714,215.341 170.331,215.340 135.490 C 215.340 109.586,215.244 88.031,215.128 87.589 C 214.796 86.325,213.599 86.617,211.443 88.487 M145.893 151.498 C 145.500 151.721,145.060 152.078,144.916 152.291 C 144.573 152.798,144.573 322.915,144.916 323.429 C 145.688 324.584,146.751 324.643,166.901 324.643 C 185.578 324.643,187.119 324.597,187.819 324.018 L 188.574 323.393 188.662 288.112 C 188.739 257.206,188.816 252.789,189.286 252.490 C 190.185 251.917,287.351 252.208,287.929 252.786 C 288.302 253.160,288.404 260.068,288.448 288.255 C 288.510 328.405,288.150 324.643,291.930 324.642 C 296.497 324.642,301.967 323.176,308.059 320.323 C 308.858 319.949,309.616 319.643,309.744 319.643 C 309.961 319.643,314.246 316.830,314.643 316.427 C 314.741 316.327,315.464 315.768,316.250 315.185 C 324.031 309.404,332.663 294.349,332.475 286.884 C 332.461 286.339,332.061 287.580,331.585 289.643 C 328.823 301.616,322.094 311.224,311.786 317.913 C 309.150 319.624,303.657 322.017,300.536 322.815 C 294.151 324.448,289.912 324.742,289.298 323.595 C 289.051 323.132,288.929 311.514,288.929 288.440 C 288.929 251.655,288.964 252.356,287.079 252.021 C 284.192 251.507,189.247 251.671,188.728 252.191 C 188.300 252.619,188.221 258.062,188.209 287.953 L 188.195 323.210 187.310 323.790 C 186.132 324.562,146.851 324.367,145.908 323.584 C 145.125 322.934,145.059 153.401,145.842 152.331 C 146.302 151.702,147.363 151.661,166.693 151.518 L 187.059 151.367 187.637 152.192 C 188.156 152.933,188.214 155.724,188.214 180.008 C 188.214 200.526,188.317 207.103,188.643 207.429 C 188.973 207.759,200.367 207.837,238.196 207.770 L 287.321 207.684 238.036 207.499 C 210.929 207.398,188.710 207.276,188.661 207.229 C 188.612 207.182,188.571 194.779,188.571 179.668 C 188.571 155.168,188.511 152.133,188.010 151.633 C 187.294 150.917,147.145 150.788,145.893 151.498 M258.375 183.180 C 258.188 183.357,257.714 183.579,257.321 183.674 C 256.644 183.837,256.646 183.848,257.367 183.887 C 257.785 183.910,258.327 183.688,258.571 183.393 C 259.056 182.809,258.920 182.661,258.375 183.180 M254.023 183.828 C 254.566 183.910,255.369 183.908,255.808 183.823 C 256.248 183.738,255.804 183.671,254.821 183.674 C 253.839 183.676,253.480 183.746,254.023 183.828 " stroke="none" fill="#98a8e9" fill-rule="evenodd"></path><path id="path3" d="M211.071 41.436 C 207.906 41.706,202.775 42.875,200.839 43.767 C 200.220 44.052,199.611 44.286,199.485 44.286 C 199.188 44.286,195.134 46.254,193.750 47.070 C 190.724 48.855,186.865 51.804,184.059 54.478 C 183.654 54.863,182.869 55.500,182.313 55.893 C 181.758 56.286,181.051 56.857,180.741 57.163 C 180.432 57.468,179.455 58.263,178.571 58.929 C 177.688 59.594,176.699 60.406,176.375 60.731 C 176.050 61.057,175.006 61.949,174.054 62.715 C 173.102 63.481,171.666 64.711,170.864 65.448 C 169.081 67.088,165.355 70.001,165.046 69.997 C 164.464 69.988,158.308 64.985,146.063 54.570 C 136.978 46.843,134.014 45.185,124.643 42.587 C 120.643 41.478,109.594 41.156,107.143 42.077 C 106.455 42.335,105.022 42.693,103.957 42.872 C 101.605 43.267,99.072 44.226,94.821 46.333 C 90.765 48.344,90.102 48.808,85.046 53.168 C 83.020 54.915,79.210 59.565,77.840 61.964 C 77.391 62.750,76.650 64.049,76.193 64.852 C 74.772 67.346,73.536 71.058,72.462 76.059 L 71.429 80.869 71.429 182.575 L 71.429 284.281 72.321 288.857 C 73.428 294.537,74.814 298.210,77.677 303.053 C 83.673 313.194,94.164 320.789,105.357 323.092 C 111.628 324.382,113.547 324.385,114.362 323.103 C 114.511 322.869,114.634 269.522,114.637 204.554 L 114.643 86.429 115.625 86.443 C 116.168 86.451,117.099 86.890,117.706 87.425 C 118.724 88.321,124.227 93.022,128.375 96.537 C 129.347 97.361,130.901 98.679,131.828 99.464 C 132.755 100.250,134.407 101.616,135.499 102.500 C 136.591 103.384,138.412 104.930,139.546 105.937 C 140.680 106.943,143.586 109.393,146.005 111.381 C 148.424 113.369,150.611 115.203,150.864 115.456 C 151.118 115.710,153.058 117.358,155.176 119.119 C 157.295 120.880,160.090 123.247,161.389 124.378 C 164.896 127.433,165.379 127.326,171.259 122.193 C 173.809 119.967,177.092 117.208,178.750 115.899 C 179.732 115.123,180.633 114.350,180.752 114.181 C 180.871 114.012,181.379 113.605,181.880 113.276 C 182.381 112.947,184.373 111.312,186.306 109.641 C 188.240 107.970,190.625 105.975,191.607 105.207 C 192.589 104.438,193.747 103.475,194.180 103.066 C 194.612 102.656,195.175 102.160,195.430 101.962 C 195.684 101.765,197.902 99.903,200.357 97.825 C 202.813 95.747,206.348 92.781,208.214 91.234 C 210.080 89.686,212.007 88.052,212.496 87.603 C 213.653 86.540,214.850 86.534,215.128 87.589 C 215.244 88.031,215.340 109.598,215.340 135.515 C 215.341 173.179,215.432 182.727,215.796 183.086 C 216.472 183.753,257.574 183.894,258.373 183.231 C 258.989 182.720,259.174 92.067,258.578 83.036 C 258.239 77.905,257.382 72.574,256.672 71.186 C 256.389 70.632,256.044 69.651,255.905 69.006 C 254.684 63.337,246.112 52.564,239.555 48.457 C 237.837 47.381,231.769 44.286,231.378 44.286 C 231.170 44.286,230.494 44.057,229.875 43.776 C 227.172 42.553,216.971 40.801,214.464 41.130 C 214.268 41.156,212.741 41.293,211.071 41.436 M289.375 41.823 C 289.020 42.190,288.929 59.250,288.929 124.679 L 288.929 207.073 287.804 207.465 C 286.117 208.053,189.232 208.017,188.643 207.429 C 188.317 207.103,188.214 200.526,188.214 180.008 C 188.214 155.724,188.156 152.933,187.637 152.192 L 187.059 151.367 166.693 151.518 C 147.363 151.661,146.302 151.702,145.842 152.331 C 145.059 153.401,145.125 322.934,145.908 323.584 C 146.851 324.367,186.132 324.562,187.310 323.790 L 188.195 323.210 188.209 287.953 C 188.221 258.062,188.300 252.619,188.728 252.191 C 189.247 251.671,284.192 251.507,287.079 252.021 C 288.964 252.356,288.929 251.655,288.929 288.440 C 288.929 311.514,289.051 323.132,289.298 323.595 C 289.912 324.742,294.151 324.448,300.536 322.815 C 303.657 322.017,309.150 319.624,311.786 317.913 C 322.187 311.163,328.893 301.533,331.602 289.453 L 332.508 285.412 332.406 181.724 L 332.304 78.036 331.390 74.821 C 328.029 62.997,319.987 51.782,311.924 47.672 C 311.160 47.283,310.152 46.683,309.684 46.339 C 309.216 45.996,308.552 45.714,308.210 45.714 C 307.868 45.714,307.396 45.484,307.162 45.202 C 306.928 44.920,306.225 44.578,305.600 44.444 C 304.976 44.309,303.868 43.897,303.139 43.528 C 302.410 43.159,301.320 42.857,300.717 42.857 C 300.114 42.857,299.022 42.597,298.292 42.279 C 296.513 41.504,290.003 41.171,289.375 41.823 M222.846 42.659 C 223.920 42.965,225.286 43.220,225.881 43.226 C 226.477 43.233,227.607 43.549,228.393 43.929 C 229.179 44.308,230.111 44.624,230.465 44.631 C 230.819 44.637,231.703 44.951,232.429 45.328 C 233.156 45.704,234.152 46.193,234.643 46.413 C 237.802 47.832,243.804 52.381,246.835 55.654 C 250.563 59.681,255.695 68.077,255.713 70.179 C 255.716 70.571,255.971 71.375,256.279 71.964 C 258.049 75.352,259.221 181.776,257.500 182.865 C 256.906 183.240,219.029 183.359,217.188 182.991 L 216.071 182.768 216.071 134.670 C 216.071 97.736,215.972 86.472,215.643 86.143 C 214.729 85.229,213.422 85.698,211.250 87.719 C 210.071 88.816,208.464 90.220,207.679 90.838 C 205.483 92.567,199.686 97.372,197.555 99.229 C 196.505 100.144,195.460 101.054,195.233 101.250 C 194.359 102.007,191.295 104.505,190.197 105.357 C 189.079 106.225,186.954 108.017,182.877 111.532 C 181.786 112.472,180.652 113.449,180.357 113.702 C 180.063 113.955,178.455 115.249,176.786 116.578 C 173.589 119.122,170.951 121.314,169.129 122.940 C 168.528 123.477,167.781 124.120,167.471 124.369 C 167.160 124.618,166.484 125.204,165.969 125.672 L 165.033 126.522 163.141 124.958 C 162.101 124.097,160.688 122.848,160.000 122.183 C 159.313 121.517,156.824 119.428,154.469 117.540 C 152.114 115.652,149.672 113.599,149.042 112.977 C 148.411 112.356,146.239 110.508,144.215 108.870 C 142.192 107.233,140.455 105.799,140.357 105.683 C 140.148 105.438,132.733 99.117,130.714 97.463 C 130.223 97.061,129.269 96.222,128.594 95.598 C 127.918 94.974,127.093 94.304,126.760 94.107 C 126.427 93.911,125.224 92.946,124.088 91.964 C 122.951 90.982,121.205 89.491,120.207 88.651 C 119.209 87.811,118.071 86.825,117.679 86.461 C 115.354 84.308,113.812 85.021,113.670 88.314 C 113.626 89.339,113.568 90.500,113.541 90.893 C 113.515 91.286,113.512 143.500,113.536 206.924 C 113.567 292.265,113.473 322.367,113.174 322.727 C 112.694 323.305,110.739 323.346,108.750 322.819 C 107.964 322.611,106.313 322.300,105.081 322.126 C 103.849 321.953,102.322 321.577,101.688 321.291 C 101.054 321.005,100.134 320.666,99.643 320.537 C 98.794 320.314,96.150 319.163,95.000 318.514 C 94.705 318.348,94.095 318.053,93.644 317.859 C 90.274 316.405,80.266 306.812,79.456 304.259 C 79.327 303.854,78.513 302.324,77.647 300.858 C 76.780 299.393,76.070 298.078,76.069 297.936 C 76.068 297.794,75.842 297.247,75.567 296.720 C 75.292 296.194,74.956 295.229,74.820 294.578 C 74.684 293.926,74.340 293.025,74.055 292.576 C 73.770 292.126,73.391 290.482,73.214 288.922 C 73.036 287.362,72.682 285.721,72.427 285.275 C 71.602 283.830,71.760 80.888,72.587 79.464 C 72.930 78.875,73.211 77.669,73.212 76.783 C 73.213 75.898,73.363 74.693,73.545 74.105 C 74.540 70.891,76.156 66.871,76.915 65.724 C 77.392 65.005,78.297 63.394,78.927 62.146 C 79.557 60.898,80.257 59.668,80.483 59.414 C 80.708 59.159,81.295 58.442,81.786 57.820 C 85.758 52.788,95.434 45.932,100.179 44.788 C 100.768 44.646,101.571 44.325,101.964 44.074 C 102.357 43.824,103.723 43.504,105.000 43.364 C 106.277 43.225,107.944 42.893,108.706 42.627 C 110.580 41.972,118.036 41.988,120.663 42.653 C 121.771 42.934,123.643 43.277,124.821 43.416 C 126.000 43.554,127.281 43.887,127.669 44.155 C 128.056 44.423,128.760 44.643,129.234 44.643 C 129.707 44.643,130.595 44.946,131.208 45.316 C 131.820 45.687,132.711 46.108,133.187 46.253 C 133.663 46.398,134.225 46.661,134.437 46.839 C 134.874 47.206,137.955 49.282,138.863 49.821 C 139.536 50.221,145.907 55.244,147.890 56.939 C 148.596 57.542,149.480 58.282,149.855 58.583 C 150.229 58.884,151.902 60.338,153.571 61.813 C 155.241 63.289,157.571 65.260,158.750 66.194 C 159.929 67.127,161.428 68.325,162.082 68.856 C 164.077 70.477,164.890 70.797,165.805 70.321 C 166.701 69.856,170.836 66.628,173.046 64.669 C 173.838 63.967,175.436 62.589,176.598 61.607 C 177.760 60.625,179.362 59.251,180.159 58.554 C 183.686 55.468,191.742 48.929,192.018 48.928 C 192.185 48.928,193.247 48.285,194.379 47.500 C 195.510 46.714,196.744 46.071,197.121 46.071 C 197.498 46.071,198.018 45.861,198.278 45.605 C 199.135 44.757,204.085 43.294,210.000 42.139 C 212.367 41.678,220.558 42.009,222.846 42.659 M296.827 42.693 C 297.639 42.980,298.933 43.214,299.702 43.214 C 300.471 43.214,301.730 43.536,302.500 43.929 C 303.270 44.321,304.163 44.643,304.484 44.643 C 304.805 44.643,305.495 44.941,306.016 45.305 C 306.538 45.669,307.420 46.078,307.977 46.212 C 308.534 46.347,309.177 46.614,309.406 46.805 C 310.256 47.517,312.542 48.929,312.843 48.929 C 313.015 48.929,313.208 49.052,313.274 49.203 C 313.339 49.354,313.875 49.849,314.464 50.304 C 323.681 57.418,329.085 66.367,331.078 77.814 C 331.772 81.801,331.786 83.804,331.786 183.019 L 331.786 284.159 330.894 288.643 C 328.695 299.690,323.757 307.798,315.058 314.647 C 313.553 315.832,312.120 316.965,311.874 317.165 C 308.559 319.866,295.449 323.864,291.104 323.500 L 289.821 323.393 289.637 287.679 C 289.535 268.036,289.415 251.920,289.369 251.866 C 289.323 251.812,288.907 251.624,288.444 251.448 C 287.472 251.078,190.586 250.490,189.171 250.845 C 187.266 251.323,187.335 250.062,187.143 287.857 L 186.964 323.036 167.143 323.121 C 156.241 323.168,147.107 323.070,146.846 322.903 C 146.085 322.419,146.229 153.977,146.990 153.214 C 147.724 152.479,186.386 152.218,186.848 152.945 C 187.004 153.191,187.134 165.558,187.137 180.426 L 187.143 207.459 187.937 208.015 C 189.540 209.138,288.005 208.729,289.140 207.595 C 289.570 207.165,289.643 195.090,289.643 124.677 C 289.643 79.349,289.763 42.138,289.911 41.986 C 290.296 41.590,295.087 42.079,296.827 42.693 " stroke="none" fill="#8484dc" fill-rule="evenodd"></path><path id="path4" d="M109.286 40.334 C 107.813 40.485,105.402 40.967,103.929 41.404 C 102.455 41.841,100.724 42.355,100.080 42.547 C 98.433 43.038,95.357 44.622,95.357 44.979 C 95.357 45.143,94.811 45.380,94.143 45.505 C 93.475 45.631,92.732 45.970,92.492 46.259 C 92.252 46.549,91.856 46.786,91.612 46.786 C 91.367 46.786,90.759 47.107,90.260 47.500 C 89.760 47.893,89.123 48.214,88.845 48.214 C 88.566 48.214,87.441 49.138,86.346 50.268 C 85.251 51.397,83.576 53.022,82.624 53.878 C 81.672 54.734,80.732 55.719,80.536 56.066 C 80.339 56.414,79.458 57.525,78.577 58.535 C 77.697 59.544,76.732 60.830,76.434 61.393 C 74.880 64.327,73.949 66.360,73.718 67.321 C 73.577 67.911,73.165 68.953,72.802 69.638 C 72.440 70.322,72.143 71.493,72.143 72.239 C 72.143 72.986,71.862 74.026,71.518 74.550 C 70.574 75.992,70.543 289.084,71.486 291.071 C 71.813 291.759,72.186 292.964,72.316 293.750 C 72.446 294.536,72.770 295.517,73.036 295.930 C 73.302 296.343,73.628 297.262,73.761 297.971 C 73.894 298.680,74.228 299.446,74.502 299.674 C 74.776 299.901,75.000 300.340,75.000 300.648 C 75.000 301.196,77.618 305.857,78.370 306.650 C 78.579 306.870,79.473 307.914,80.356 308.971 C 83.241 312.424,88.281 317.143,89.083 317.143 C 89.195 317.143,89.607 317.464,90.000 317.857 C 90.393 318.250,91.030 318.571,91.416 318.571 C 91.802 318.571,92.290 318.893,92.500 319.286 C 92.710 319.679,93.140 320.000,93.455 320.000 C 93.770 320.000,94.819 320.487,95.787 321.082 C 100.990 324.284,113.305 326.472,115.250 324.541 C 115.866 323.930,115.897 318.970,115.987 206.161 C 116.039 141.402,116.201 88.299,116.347 88.153 C 116.619 87.881,118.467 89.386,122.123 92.857 C 125.486 96.050,126.531 96.938,127.978 97.826 C 128.731 98.289,129.615 98.942,129.942 99.277 C 130.268 99.612,131.418 100.573,132.496 101.413 C 133.574 102.253,134.666 103.241,134.922 103.607 C 135.179 103.973,136.065 104.748,136.891 105.328 C 137.717 105.907,138.875 106.799,139.464 107.310 C 140.054 107.820,141.240 108.835,142.101 109.565 C 142.962 110.295,143.846 111.059,144.066 111.263 C 144.285 111.466,145.429 112.433,146.607 113.412 C 150.289 116.470,150.814 116.920,152.663 118.603 C 153.654 119.505,155.348 120.917,156.429 121.743 C 159.196 123.856,161.092 125.405,162.057 126.338 C 164.286 128.493,166.981 128.132,169.028 125.402 C 169.268 125.083,170.182 124.339,171.060 123.750 C 171.938 123.161,173.120 122.156,173.687 121.518 C 174.253 120.879,174.909 120.357,175.143 120.357 C 175.378 120.357,176.197 119.714,176.964 118.929 C 177.732 118.143,178.487 117.500,178.644 117.500 C 178.800 117.500,179.543 116.897,180.294 116.161 C 181.970 114.517,185.236 111.701,186.716 110.622 C 188.626 109.231,195.161 103.866,195.575 103.351 C 195.793 103.079,196.144 102.857,196.355 102.857 C 196.565 102.857,196.831 102.576,196.946 102.232 C 197.061 101.888,197.795 101.134,198.577 100.556 C 199.360 99.979,200.000 99.376,200.000 99.217 C 200.000 99.058,200.211 98.929,200.468 98.929 C 200.726 98.929,201.248 98.647,201.629 98.304 C 202.010 97.960,203.204 96.955,204.282 96.071 C 206.467 94.280,207.857 92.887,207.857 92.490 C 207.857 92.345,208.179 92.142,208.571 92.039 C 208.964 91.937,209.286 91.568,209.286 91.221 C 209.286 90.537,209.372 90.481,206.786 92.837 C 206.295 93.285,204.527 94.798,202.857 96.200 C 198.711 99.682,194.682 103.109,193.393 104.250 C 192.804 104.771,191.598 105.752,190.714 106.429 C 189.830 107.106,189.027 107.750,188.929 107.859 C 188.782 108.022,180.984 114.552,179.358 115.873 C 179.103 116.080,178.621 116.498,178.286 116.802 C 177.952 117.106,176.795 118.070,175.714 118.945 C 174.634 119.819,173.188 121.044,172.500 121.666 C 170.005 123.922,165.554 127.143,164.930 127.143 C 164.207 127.143,155.121 119.953,151.615 116.607 C 151.204 116.214,149.194 114.527,147.149 112.857 C 145.104 111.188,142.120 108.696,140.517 107.321 C 135.636 103.133,128.256 96.970,126.354 95.493 C 125.822 95.079,124.375 93.855,123.139 92.772 C 117.300 87.654,116.637 87.143,115.837 87.143 L 115.000 87.143 115.000 205.313 C 115.000 306.596,114.928 323.544,114.496 323.902 C 112.652 325.432,103.782 323.940,97.679 321.073 C 96.500 320.520,94.973 319.806,94.286 319.488 C 88.907 316.998,81.441 310.124,77.578 304.106 C 75.707 301.189,73.264 295.167,72.075 290.536 L 71.250 287.321 71.156 184.295 C 71.101 123.263,71.196 80.392,71.390 79.117 C 71.985 75.196,72.887 71.263,73.411 70.302 C 73.696 69.781,73.934 69.138,73.941 68.873 C 73.947 68.609,74.263 67.750,74.643 66.964 C 75.022 66.179,75.338 65.427,75.345 65.293 C 75.405 64.099,80.876 56.562,83.566 53.969 C 85.823 51.793,89.654 48.571,89.984 48.571 C 90.161 48.571,90.541 48.337,90.828 48.049 C 91.432 47.446,97.248 44.478,98.571 44.098 C 99.063 43.957,99.625 43.716,99.821 43.564 C 101.192 42.501,108.279 41.278,113.750 41.160 C 127.512 40.864,136.536 44.968,150.863 58.036 C 151.293 58.429,152.829 59.703,154.276 60.867 C 155.722 62.032,157.660 63.639,158.582 64.439 C 160.593 66.184,162.677 67.909,164.027 68.947 L 165.018 69.709 167.511 67.695 C 168.882 66.587,170.284 65.398,170.627 65.053 C 170.970 64.708,171.973 63.884,172.857 63.222 C 173.741 62.560,174.625 61.841,174.821 61.624 C 175.018 61.407,176.946 59.796,179.107 58.044 C 181.268 56.293,183.759 54.208,184.644 53.412 C 189.894 48.686,193.425 46.461,200.536 43.397 C 208.472 39.978,223.564 40.062,230.691 43.566 C 230.999 43.717,233.014 44.704,235.170 45.759 C 238.932 47.601,242.560 49.948,244.138 51.560 C 244.547 51.979,245.637 53.012,246.559 53.856 C 248.984 56.077,252.537 60.878,253.886 63.759 C 254.528 65.129,255.282 66.677,255.562 67.198 C 255.842 67.719,256.071 68.424,256.071 68.763 C 256.071 69.102,256.379 69.881,256.754 70.494 C 257.130 71.106,257.550 72.411,257.688 73.393 C 257.826 74.375,258.162 76.056,258.434 77.129 C 259.176 80.055,259.172 182.925,258.429 183.541 C 257.585 184.242,216.543 184.085,215.462 183.378 L 214.636 182.836 214.647 135.461 C 214.658 87.704,214.644 87.212,213.340 87.652 C 211.974 88.112,209.377 90.692,210.268 90.704 C 210.724 90.710,211.071 90.498,211.071 90.214 C 211.071 89.938,211.554 89.545,212.143 89.339 C 212.732 89.134,213.214 88.787,213.214 88.569 C 213.214 88.351,213.375 88.271,213.571 88.393 C 213.807 88.538,213.929 104.745,213.929 135.852 L 213.929 183.090 214.850 183.956 L 215.771 184.821 236.914 184.924 L 258.056 185.026 259.038 184.000 L 260.021 182.975 259.905 131.220 C 259.800 84.111,259.735 79.195,259.180 76.467 C 258.270 71.998,257.822 70.599,257.090 69.943 C 256.726 69.617,256.429 68.915,256.429 68.384 C 256.429 67.853,256.128 66.834,255.760 66.120 C 255.392 65.406,254.635 63.857,254.079 62.679 C 253.522 61.500,252.979 60.455,252.872 60.357 C 252.766 60.259,252.518 59.922,252.321 59.607 C 248.941 54.201,238.565 45.357,235.602 45.357 C 235.332 45.357,234.835 45.052,234.497 44.679 C 233.790 43.897,229.069 41.953,226.964 41.576 C 226.179 41.436,225.152 41.071,224.683 40.766 C 223.386 39.921,208.788 39.928,206.250 40.774 C 205.268 41.101,203.821 41.478,203.036 41.610 C 202.250 41.743,201.205 42.058,200.714 42.310 C 200.223 42.562,199.098 43.116,198.214 43.540 C 197.330 43.965,195.804 44.781,194.821 45.355 C 193.839 45.928,192.670 46.563,192.223 46.765 C 191.776 46.967,191.213 47.300,190.973 47.504 C 190.732 47.709,189.813 48.348,188.929 48.924 C 188.045 49.501,186.679 50.538,185.893 51.229 C 185.107 51.920,183.847 53.011,183.093 53.654 C 181.788 54.765,180.038 56.307,177.679 58.425 C 177.089 58.954,175.402 60.279,173.929 61.369 C 171.324 63.297,170.643 63.875,167.230 67.054 C 166.334 67.888,165.425 68.569,165.211 68.567 C 164.295 68.555,163.214 68.100,163.212 67.726 C 163.210 67.260,159.678 64.024,157.003 62.038 C 153.683 59.574,153.140 59.125,150.936 57.020 C 149.734 55.873,148.067 54.459,147.232 53.878 C 146.397 53.298,145.714 52.670,145.714 52.483 C 145.714 52.296,145.554 52.143,145.357 52.143 C 145.161 52.143,144.698 51.862,144.328 51.518 C 142.744 50.044,141.217 48.910,140.112 48.385 C 139.461 48.076,138.929 47.704,138.929 47.558 C 138.929 47.412,138.004 46.846,136.875 46.301 C 135.746 45.756,134.580 45.163,134.286 44.983 C 132.732 44.034,127.727 41.786,127.168 41.786 C 126.813 41.786,125.532 41.469,124.322 41.083 C 121.790 40.274,113.754 39.874,109.286 40.334 M288.813 40.755 L 287.830 41.607 287.754 124.031 C 287.687 196.852,287.616 206.494,287.143 206.794 C 286.809 207.005,268.264 207.101,238.036 207.049 L 189.464 206.964 189.286 179.183 C 189.096 149.607,189.169 150.786,187.500 150.697 C 179.693 150.279,144.777 150.763,144.388 151.294 C 143.872 152.000,143.694 323.364,144.209 324.174 C 144.788 325.085,146.928 325.179,167.085 325.179 L 187.920 325.179 188.603 324.335 C 189.265 323.518,189.286 322.429,189.286 288.603 C 189.286 261.944,189.387 253.613,189.714 253.286 C 190.476 252.524,285.827 252.680,286.994 253.445 L 287.891 254.033 287.835 289.018 C 287.783 321.140,287.827 324.051,288.369 324.591 C 289.190 325.408,296.703 325.395,298.771 324.573 C 299.545 324.265,301.014 323.900,302.036 323.761 C 303.057 323.623,304.081 323.282,304.311 323.005 C 304.542 322.727,304.875 322.500,305.051 322.500 C 305.719 322.500,311.620 319.538,311.893 319.066 C 312.050 318.794,312.342 318.571,312.542 318.571 C 312.742 318.571,313.793 317.848,314.878 316.964 C 315.963 316.080,317.001 315.357,317.184 315.357 C 317.700 315.357,323.571 309.308,323.571 308.776 C 323.571 308.517,324.214 307.601,325.000 306.742 C 325.786 305.882,326.429 304.978,326.429 304.732 C 326.429 304.487,326.549 304.285,326.696 304.285 C 327.183 304.284,328.896 301.244,329.829 298.726 C 330.334 297.364,330.981 295.744,331.267 295.125 C 331.552 294.506,331.786 293.654,331.786 293.232 C 331.786 292.810,332.067 291.950,332.411 291.322 C 333.002 290.240,333.036 284.403,333.036 183.036 C 333.036 81.828,333.001 75.806,332.411 74.330 C 332.067 73.471,331.786 72.444,331.786 72.048 C 331.786 71.280,331.412 70.384,328.806 64.911 C 327.894 62.996,326.986 61.429,326.788 61.429 C 326.590 61.429,326.429 61.140,326.429 60.786 C 326.429 60.433,325.786 59.475,325.000 58.657 C 324.214 57.839,323.571 57.054,323.571 56.912 C 323.571 55.590,313.752 46.786,312.278 46.786 C 312.007 46.786,311.464 46.464,311.071 46.071 C 310.679 45.679,310.099 45.357,309.784 45.357 C 309.468 45.357,308.750 44.970,308.188 44.497 C 307.625 44.023,306.316 43.359,305.279 43.021 C 304.242 42.682,303.224 42.273,303.018 42.111 C 302.812 41.949,301.928 41.716,301.054 41.592 C 300.180 41.469,298.860 41.141,298.122 40.864 C 295.400 39.843,289.939 39.779,288.813 40.755 M298.514 41.829 C 302.161 42.726,307.500 44.649,307.500 45.065 C 307.500 45.226,307.718 45.357,307.985 45.357 C 310.839 45.357,325.000 57.375,325.000 59.797 C 325.000 59.904,325.643 60.918,326.428 62.050 C 327.214 63.181,327.856 64.336,327.857 64.615 C 327.857 64.894,328.083 65.376,328.359 65.686 C 329.128 66.549,330.635 70.499,331.710 74.464 L 332.679 78.036 332.679 182.679 L 332.679 287.321 331.834 290.536 C 329.202 300.555,323.230 309.999,316.250 315.185 C 315.464 315.768,314.741 316.327,314.643 316.427 C 314.246 316.830,309.961 319.643,309.744 319.643 C 309.616 319.643,308.858 319.949,308.059 320.323 C 301.967 323.176,296.497 324.642,291.930 324.642 C 288.150 324.643,288.510 328.405,288.448 288.255 C 288.404 260.068,288.302 253.160,287.929 252.786 C 287.351 252.208,190.185 251.917,189.286 252.490 C 188.816 252.789,188.739 257.206,188.662 288.112 L 188.574 323.393 187.819 324.018 C 187.119 324.597,185.578 324.643,166.901 324.643 C 146.751 324.643,145.688 324.584,144.916 323.429 C 144.573 322.915,144.573 152.799,144.916 152.286 C 145.688 151.129,146.748 151.071,167.094 151.071 C 185.122 151.071,187.513 151.136,188.010 151.633 C 188.511 152.133,188.571 155.164,188.571 179.630 C 188.571 204.319,188.628 207.088,189.136 207.283 C 190.100 207.653,287.269 207.522,287.857 207.150 C 288.330 206.851,288.403 197.200,288.482 124.390 L 288.571 41.968 289.375 41.322 C 290.391 40.505,293.933 40.702,298.514 41.829 " stroke="none" fill="#c1cff2" fill-rule="evenodd"></path></g></svg>